<svg width="544" height="209" viewBox="0 0 544 209" fill="none" xmlns="http://www.w3.org/2000/svg">
<mask id="mask0_773_2153" style="mask-type:alpha" maskUnits="userSpaceOnUse" x="0" y="0" width="544" height="209">
<path d="M0 12C0 5.37258 5.37258 0 12 0H532C538.627 0 544 5.37258 544 12V197C544 203.627 538.627 209 532 209H12C5.37259 209 0 203.627 0 197V12Z" fill="#20293A"/>
</mask>
<g mask="url(#mask0_773_2153)">
<path d="M543.603 0C547.294 44.1038 490.657 130.404 374.841 159.328C310.011 175.519 216.218 167.546 148.975 174.747C67.8162 183.438 17.4337 206.871 0 225.287" stroke="#364153" stroke-opacity="0.5"/>
<path d="M549.37 8.56604C553.061 52.6698 496.424 138.97 380.608 167.894C315.778 184.085 221.985 176.112 154.742 183.313C73.583 192.004 23.2005 215.437 5.76685 233.853" stroke="#364153" stroke-opacity="0.5"/>
<path d="M555.136 17.1321C558.828 61.2358 502.191 147.536 386.375 176.46C321.545 192.651 227.751 184.678 160.509 191.879C79.3498 200.57 28.9672 224.003 11.5336 242.419" stroke="#364153" stroke-opacity="0.5"/>
<path d="M560.903 25.6981C564.594 69.8019 507.958 156.102 392.141 185.026C327.312 201.217 233.518 193.244 166.276 200.445C85.1166 209.136 34.7341 232.569 17.3004 250.985" stroke="#364153" stroke-opacity="0.5"/>
<path d="M566.67 34.2642C570.361 78.3679 513.724 164.668 397.908 193.592C333.079 209.783 239.285 201.811 172.042 209.011C90.8833 217.702 40.5008 241.135 23.0671 259.551" stroke="#364153" stroke-opacity="0.5"/>
<path d="M572.437 42.8302C576.128 86.9339 519.491 173.234 403.675 202.158C338.845 218.349 245.052 210.377 177.809 217.577C96.6501 226.268 46.2675 249.701 28.8339 268.117" stroke="#364153" stroke-opacity="0.5"/>
<path d="M578.204 51.3962C581.895 95.5 525.258 181.8 409.442 210.725C344.612 226.915 250.818 218.943 183.576 226.143C102.417 234.834 52.0344 258.267 34.6007 276.683" stroke="#364153" stroke-opacity="0.5"/>
<path d="M583.97 59.9623C587.662 104.066 531.025 190.366 415.209 219.291C350.379 235.481 256.585 227.509 189.343 234.709C108.184 243.401 57.8012 266.833 40.3676 285.249" stroke="#364153" stroke-opacity="0.5"/>
<path d="M589.737 68.5283C593.428 112.632 536.792 198.932 420.975 227.857C356.146 244.047 262.352 236.075 195.11 243.275C113.95 251.967 63.568 275.399 46.1343 293.815" stroke="#364153" stroke-opacity="0.5"/>
<path d="M595.504 77.0943C599.195 121.198 542.558 207.498 426.742 236.423C361.913 252.613 268.119 244.641 200.876 251.841C119.717 260.533 69.3348 283.965 51.9011 302.381" stroke="#364153" stroke-opacity="0.5"/>
<path d="M602.232 85.6604C605.923 129.764 549.286 216.064 433.47 244.989C368.64 261.18 274.847 253.207 207.604 260.408C126.445 269.099 76.0626 292.531 58.6289 310.947" stroke="#364153" stroke-opacity="0.5"/>
<path d="M608.96 94.2264C612.651 138.33 556.014 224.63 440.198 253.555C375.368 269.746 281.575 261.773 214.332 268.974C133.173 277.665 82.7906 301.097 65.3569 319.513" stroke="#364153" stroke-opacity="0.5"/>
</g>
</svg>
